<!-- <svg width="0" height="0" class="hidden"> -->
<svg xmlns="http://www.w3.org/2000/svg" style="position:absolute;width:100;height:100">
  <symbol viewBox="0 0 21.51 21.51" id="gmail-envelope">
    <path d="M0 2.963v15.584h21.51V2.963H0zm15.722.548l-4.969 4.966-5.547-4.966h10.516zM2.912 5.993l5.992 5.19-5.992 4.589V5.993zm15.685 12.04H2.912v-1.41l6.403-4.926 1.438 1.438 1.507-1.438 6.337 4.926v1.41zm0-2.261l-5.822-4.725 5.822-5.755v10.48z" fill="#030104"></path>
  </symbol>
  <symbol viewBox="0 0 167.657 167.657" id="facebook-circular-logo">
    <path d="M83.829.349C37.532.349 0 37.881 0 84.178c0 41.523 30.222 75.911 69.848 82.57v-65.081H49.626v-23.42h20.222V60.978c0-20.037 12.238-30.956 30.115-30.956 8.562 0 15.92.638 18.056.919v20.944l-12.399.006c-9.72 0-11.594 4.618-11.594 11.397v14.947h23.193l-3.025 23.42H94.026v65.653c41.476-5.048 73.631-40.312 73.631-83.154 0-46.273-37.532-83.805-83.828-83.805z" fill="#010002"></path>
  </symbol>
  <symbol  viewBox="0 0 438.549 438.549" id="github-logo">
    <path d="M409.132 114.573c-19.608-33.596-46.205-60.194-79.798-79.8-33.598-19.607-70.277-29.408-110.063-29.408-39.781 0-76.472 9.804-110.063 29.408-33.596 19.605-60.192 46.204-79.8 79.8C9.803 148.168 0 184.854 0 224.63c0 47.78 13.94 90.745 41.827 128.906 27.884 38.164 63.906 64.572 108.063 79.227 5.14.954 8.945.283 11.419-1.996 2.475-2.282 3.711-5.14 3.711-8.562 0-.571-.049-5.708-.144-15.417a2549.81 2549.81 0 0 1-.144-25.406l-6.567 1.136c-4.187.767-9.469 1.092-15.846 1-6.374-.089-12.991-.757-19.842-1.999-6.854-1.231-13.229-4.086-19.13-8.559-5.898-4.473-10.085-10.328-12.56-17.556l-2.855-6.57c-1.903-4.374-4.899-9.233-8.992-14.559-4.093-5.331-8.232-8.945-12.419-10.848l-1.999-1.431c-1.332-.951-2.568-2.098-3.711-3.429-1.142-1.331-1.997-2.663-2.568-3.997-.572-1.335-.098-2.43 1.427-3.289 1.525-.859 4.281-1.276 8.28-1.276l5.708.853c3.807.763 8.516 3.042 14.133 6.851 5.614 3.806 10.229 8.754 13.846 14.842 4.38 7.806 9.657 13.754 15.846 17.847 6.184 4.093 12.419 6.136 18.699 6.136 6.28 0 11.704-.476 16.274-1.423 4.565-.952 8.848-2.383 12.847-4.285 1.713-12.758 6.377-22.559 13.988-29.41-10.848-1.14-20.601-2.857-29.264-5.14-8.658-2.286-17.605-5.996-26.835-11.14-9.235-5.137-16.896-11.516-22.985-19.126-6.09-7.614-11.088-17.61-14.987-29.979-3.901-12.374-5.852-26.648-5.852-42.826 0-23.035 7.52-42.637 22.557-58.817-7.044-17.318-6.379-36.732 1.997-58.24 5.52-1.715 13.706-.428 24.554 3.853 10.85 4.283 18.794 7.952 23.84 10.994 5.046 3.041 9.089 5.618 12.135 7.708 17.705-4.947 35.976-7.421 54.818-7.421s37.117 2.474 54.823 7.421l10.849-6.849c7.419-4.57 16.18-8.758 26.262-12.565 10.088-3.805 17.802-4.853 23.134-3.138 8.562 21.509 9.325 40.922 2.279 58.24 15.036 16.18 22.559 35.787 22.559 58.817 0 16.178-1.958 30.497-5.853 42.966-3.9 12.471-8.941 22.457-15.125 29.979-6.191 7.521-13.901 13.85-23.131 18.986-9.232 5.14-18.182 8.85-26.84 11.136-8.662 2.286-18.415 4.004-29.263 5.146 9.894 8.562 14.842 22.077 14.842 40.539v60.237c0 3.422 1.19 6.279 3.572 8.562 2.379 2.279 6.136 2.95 11.276 1.995 44.163-14.653 80.185-41.062 108.068-79.226 27.88-38.161 41.825-81.126 41.825-128.906-.01-39.771-9.818-76.454-29.414-110.049z"></path>
  </symbol>
  <symbol viewBox="0 0 24 24" id="telegram">
    <path d="M9.417 15.181l-.397 5.584c.568 0 .814-.244 1.109-.537l2.663-2.545 5.518 4.041c1.012.564 1.725.267 1.998-.931L23.93 3.821l.001-.001c.321-1.496-.541-2.081-1.527-1.714l-21.29 8.151c-1.453.564-1.431 1.374-.247 1.741l5.443 1.693L18.953 5.78c.595-.394 1.136-.176.691.218z"></path>
  </symbol>
  <symbol viewBox="0 0 438.536 438.536" id="linkedin-sign">
    <path d="M414.41 24.123C398.333 8.042 378.963 0 356.315 0H82.228C59.58 0 40.21 8.042 24.126 24.123 8.045 40.207.003 59.576.003 82.225v274.084c0 22.647 8.042 42.018 24.123 58.102 16.084 16.084 35.454 24.126 58.102 24.126h274.084c22.648 0 42.018-8.042 58.095-24.126 16.084-16.084 24.126-35.454 24.126-58.102V82.225c-.001-22.649-8.043-42.021-24.123-58.102zM133.618 367.157H67.666V169.016h65.952v198.141zm-5.992-234.825c-6.851 6.567-15.893 9.851-27.124 9.851h-.288c-10.848 0-19.648-3.284-26.407-9.851-6.76-6.567-10.138-14.703-10.138-24.41 0-9.897 3.476-18.083 10.421-24.556 6.95-6.471 15.942-9.708 26.98-9.708 11.039 0 19.89 3.237 26.553 9.708 6.661 6.473 10.088 14.659 10.277 24.556-.001 9.703-3.423 17.839-10.274 24.41zm243.247 234.825h-65.952v-105.92c0-29.879-11.036-44.823-33.116-44.823-8.374 0-15.42 2.331-21.128 6.995-5.715 4.661-9.996 10.324-12.847 16.991-1.335 3.422-1.999 8.75-1.999 15.981v110.775h-65.952c.571-119.529.571-185.579 0-198.142h65.952v27.974c13.867-21.681 33.558-32.544 59.101-32.544 22.84 0 41.21 7.52 55.104 22.554 13.895 15.037 20.841 37.214 20.841 66.519v113.64h-.004z"></path>
  </symbol>
</svg>